<?xml version="1.0" standalone="no"?>
<!DOCTYPE svg PUBLIC "-//W3C//DTD SVG 20010904//EN"
 "http://www.w3.org/TR/2001/REC-SVG-20010904/DTD/svg10.dtd">
<svg version="1.0" xmlns="http://www.w3.org/2000/svg"
 width="260.000000pt" height="260.000000pt" viewBox="0 0 260.000000 260.000000"
 preserveAspectRatio="xMidYMid meet">
<metadata>
Created by potrace 1.11, written by Peter Selinger 2001-2013
</metadata>
<g transform="translate(0.000000,260.000000) scale(0.100000,-0.100000)"
fill="#000000" stroke="none">
<path d="M719 2028 c-442 -438 -571 -572 -564 -583 6 -7 30 -39 54 -70 l44
-56 -51 -52 c-29 -29 -52 -56 -52 -59 0 -4 25 -30 55 -59 l56 -53 -58 -58 -58
-59 25 -19 c14 -10 65 -44 115 -75 50 -31 167 -105 260 -165 94 -60 201 -128
238 -151 98 -60 172 -137 352 -367 87 -111 162 -202 165 -202 3 1 68 82 145
182 232 299 242 308 557 508 150 96 312 199 360 230 l87 57 -60 59 -59 59 59
56 60 56 -54 55 -55 55 37 49 c21 27 43 55 50 62 7 7 13 19 13 25 0 7 -105
116 -234 242 -129 127 -387 381 -574 566 l-339 337 -574 -570z m1437 -313
l265 -260 -43 -57 c-24 -31 -46 -57 -50 -58 -7 0 -278 272 -826 827 l-212 216
-79 -82 c-43 -45 -229 -235 -412 -422 -184 -187 -378 -386 -432 -441 -53 -56
-100 -98 -105 -94 -4 4 -26 31 -48 59 l-42 52 560 556 561 556 299 -296 c164
-163 418 -413 564 -556z m-694 463 c94 -95 323 -327 510 -516 l339 -342 -32
-46 c-55 -76 -51 -76 -142 13 -161 158 -399 392 -621 612 l-227 224 -455 -454
c-250 -250 -458 -455 -463 -457 -4 -1 -15 8 -24 21 -9 13 -22 30 -29 38 -43
46 -45 41 54 142 51 52 249 254 439 449 191 194 375 383 410 420 35 38 66 68
67 68 2 0 80 -78 174 -172z m67 -322 c130 -129 336 -332 458 -452 l222 -219
-245 -310 c-135 -171 -273 -346 -308 -390 -262 -336 -360 -455 -366 -448 -4 4
-98 124 -209 266 -111 142 -210 268 -219 279 -9 12 -28 35 -42 52 -14 17 -66
83 -115 146 -49 63 -92 117 -95 120 -15 14 -220 281 -220 287 0 8 891 901 899
902 2 1 110 -104 240 -233z m-1218 -611 l42 -56 -38 -39 -39 -39 -47 42 c-26
23 -47 46 -48 52 -1 8 78 95 86 95 1 0 21 -25 44 -55z m2064 8 l43 -48 -51
-47 -52 -48 -39 39 -39 39 44 56 c24 31 45 56 47 56 2 0 23 -21 47 -47z
m-1932 -175 c40 -51 111 -140 156 -198 45 -58 90 -114 99 -125 10 -11 31 -38
47 -60 17 -22 38 -49 48 -60 20 -21 65 -84 55 -75 -4 3 -98 93 -210 201 -112
108 -236 227 -275 265 l-73 68 37 38 c20 21 38 38 40 38 1 0 35 -42 76 -92z
m1745 -92 c-62 -60 -186 -180 -275 -267 -90 -87 -163 -156 -163 -153 0 3 17
27 38 52 20 26 42 53 49 62 7 8 65 83 130 165 65 83 149 189 188 238 l69 88
38 -38 39 -38 -113 -109z m-1762 -50 c82 -79 194 -187 249 -240 l100 -97 -145
92 c-276 175 -440 279 -449 286 -4 3 89 103 95 103 0 0 68 -65 150 -144z
m1984 43 c0 -3 -48 -36 -107 -73 -132 -82 -205 -129 -351 -223 -62 -40 -114
-73 -117 -73 -4 0 81 84 360 353 l120 116 48 -47 c26 -25 47 -49 47 -53z"/>
<path d="M724 1308 c-3 -4 9 -8 25 -8 l31 0 0 -76 c0 -49 4 -73 10 -69 6 4 9
36 8 76 l-3 69 33 0 c17 0 32 4 32 8 0 11 -130 11 -136 0z"/>
<path d="M878 1313 c-6 -32 -4 -154 3 -159 5 -3 9 33 9 80 0 47 -2 86 -5 86
-3 0 -6 -3 -7 -7z"/>
<path d="M927 1314 c-11 -12 -9 -166 3 -159 6 3 10 34 10 68 l0 62 26 -30 c14
-16 42 -48 62 -70 l36 -40 6 35 c7 47 0 141 -10 135 -4 -3 -7 -32 -6 -65 1
-33 -1 -60 -4 -60 -6 0 -80 83 -105 117 -6 8 -14 11 -18 7z"/>
<path d="M1090 1313 c0 -6 6 -18 13 -25 28 -27 49 -68 47 -90 -1 -13 -2 -30
-1 -38 3 -31 17 10 16 44 -2 25 6 44 26 68 40 46 36 59 -5 19 l-34 -33 -31 34
c-17 18 -31 28 -31 21z"/>
<path d="M1306 1310 c-3 -5 0 -135 3 -152 0 -5 22 -8 47 -8 27 0 43 4 39 10
-3 6 -22 10 -41 10 -31 0 -34 3 -34 29 0 23 4 28 23 26 12 -1 31 1 42 6 22 8
8 12 -35 10 -22 -2 -26 3 -28 28 -2 29 0 31 33 31 19 0 35 4 35 8 0 9 -80 11
-84 2z"/>
<path d="M1420 1233 c0 -48 3 -83 8 -79 4 4 7 21 7 38 0 46 28 44 66 -3 39
-49 49 -44 16 8 -20 32 -22 40 -11 51 17 16 17 23 1 46 -7 10 -29 19 -50 21
l-37 4 0 -86z m71 51 c11 -14 10 -18 -6 -30 -28 -21 -49 -13 -50 19 -2 22 2
27 20 27 13 0 29 -7 36 -16z"/>
<path d="M1557 1313 c-11 -11 -8 -163 3 -163 6 0 10 35 10 85 0 85 -1 91 -13
78z"/>
<path d="M1634 1303 c-49 -40 -51 -98 -6 -133 26 -21 77 -26 102 -10 21 13 7
22 -21 12 -60 -22 -113 31 -89 88 14 35 39 44 88 35 28 -5 34 -4 26 5 -20 20
-77 22 -100 3z"/>
<path d="M1808 1275 c-42 -82 -58 -125 -47 -125 6 0 16 13 22 29 9 25 16 29
46 28 28 -1 40 -8 54 -30 33 -54 28 -21 -11 64 l-39 84 -25 -50z m30 -53 c-28
-5 -33 4 -18 35 l13 28 12 -30 c12 -27 12 -30 -7 -33z"/>
<path d="M787 1073 c-4 -3 -7 -46 -7 -94 0 -71 -3 -90 -16 -97 -9 -5 -12 -12
-7 -15 5 -3 15 -2 23 3 11 7 15 34 16 110 1 55 1 100 -1 100 -1 0 -5 -3 -8 -7z"/>
<path d="M869 1056 c-1 -29 -1 -97 0 -123 1 -20 6 -23 48 -23 48 0 53 13 5 16
-39 2 -38 2 -38 29 0 14 2 25 6 26 3 1 17 2 32 3 43 2 45 16 1 16 -37 0 -40 2
-38 28 1 23 6 28 40 33 48 7 44 11 -12 13 -37 2 -43 0 -44 -18z"/>
<path d="M1010 1072 c0 -10 58 -153 65 -160 3 -3 15 18 28 47 l24 51 22 -52
c12 -28 23 -49 26 -46 5 4 65 148 65 154 0 2 -4 4 -9 4 -5 0 -19 -27 -31 -60
-12 -33 -24 -60 -26 -60 -10 0 -35 78 -31 98 2 12 0 25 -4 28 -5 3 -9 1 -9 -5
0 -6 -7 -8 -15 -5 -12 5 -13 2 -7 -17 6 -15 3 -34 -10 -61 -10 -21 -20 -38
-22 -38 -2 0 -14 27 -26 60 -21 55 -40 85 -40 62z"/>
<path d="M1313 1071 c-5 -3 -9 -41 -9 -83 l0 -78 50 0 c54 0 57 12 4 14 -27 1
-34 6 -36 25 -4 28 12 41 45 35 12 -2 23 0 23 5 0 5 -15 11 -32 13 -28 2 -34
8 -36 31 -3 25 -1 27 32 27 20 0 36 4 36 8 0 9 -64 12 -77 3z"/>
<path d="M1459 1062 c0 -12 -1 -42 -1 -67 0 -90 -2 -85 48 -85 25 0 43 4 40 9
-4 5 -20 7 -36 5 -33 -6 -32 -10 -34 83 -2 58 -15 102 -17 55z"/>
<path d="M1615 1073 c-11 -3 -12 -149 -1 -160 6 -6 10 27 7 59 -2 13 4 16 21
13 22 -5 31 -13 62 -60 8 -11 16 -17 20 -14 3 3 -5 21 -19 41 -20 30 -22 38
-11 54 17 24 4 64 -21 65 -10 0 -25 2 -33 3 -8 2 -20 1 -25 -1z m60 -27 c16
-12 17 -16 6 -30 -7 -9 -23 -16 -35 -16 -17 0 -21 6 -21 30 -1 34 18 40 50 16z"/>
<path d="M1851 1048 l-31 -33 -24 28 c-13 15 -29 27 -37 27 -7 0 1 -15 19 -33
27 -28 32 -41 32 -80 0 -26 5 -47 10 -47 6 0 10 20 10 44 0 34 6 51 30 77 27
31 37 49 26 49 -3 0 -19 -15 -35 -32z"/>
</g>
</svg>
